<?xml version="1.0" encoding="UTF-8" standalone="no"?>
<!-- Created with Inkscape (http://www.inkscape.org/) -->
<svg
   xmlns:dc="http://purl.org/dc/elements/1.1/"
   xmlns:cc="http://creativecommons.org/ns#"
   xmlns:rdf="http://www.w3.org/1999/02/22-rdf-syntax-ns#"
   xmlns:svg="http://www.w3.org/2000/svg"
   xmlns="http://www.w3.org/2000/svg"
   xmlns:xlink="http://www.w3.org/1999/xlink"
   xmlns:sodipodi="http://sodipodi.sourceforge.net/DTD/sodipodi-0.dtd"
   xmlns:inkscape="http://www.inkscape.org/namespaces/inkscape"
   width="744.09448819"
   height="1052.3622047"
   id="svg2"
   sodipodi:version="0.32"
   inkscape:version="0.46"
   sodipodi:docname="logo.svg"
   inkscape:output_extension="org.inkscape.output.svg.inkscape">
  <defs
     id="defs4">
    <linearGradient
       inkscape:collect="always"
       id="linearGradient3287">
      <stop
         style="stop-color:#000000;stop-opacity:1;"
         offset="0"
         id="stop3289" />
      <stop
         style="stop-color:#000000;stop-opacity:0;"
         offset="1"
         id="stop3291" />
    </linearGradient>
    <linearGradient
       inkscape:collect="always"
       id="linearGradient3227">
      <stop
         style="stop-color:#ffffff;stop-opacity:1;"
         offset="0"
         id="stop3229" />
      <stop
         style="stop-color:#ffffff;stop-opacity:0;"
         offset="1"
         id="stop3231" />
    </linearGradient>
    <linearGradient
       inkscape:collect="always"
       id="linearGradient3181">
      <stop
         style="stop-color:#000000;stop-opacity:1;"
         offset="0"
         id="stop3183" />
      <stop
         style="stop-color:#000000;stop-opacity:0;"
         offset="1"
         id="stop3185" />
    </linearGradient>
    <inkscape:perspective
       sodipodi:type="inkscape:persp3d"
       inkscape:vp_x="0 : 526.18109 : 1"
       inkscape:vp_y="0 : 1000 : 0"
       inkscape:vp_z="744.09448 : 526.18109 : 1"
       inkscape:persp3d-origin="372.04724 : 350.78739 : 1"
       id="perspective10" />
    <linearGradient
       inkscape:collect="always"
       xlink:href="#linearGradient3181"
       id="linearGradient3187"
       x1="128.69344"
       y1="116.76829"
       x2="128.69344"
       y2="215.76323"
       gradientUnits="userSpaceOnUse" />
    <linearGradient
       inkscape:collect="always"
       xlink:href="#linearGradient3227"
       id="linearGradient3233"
       x1="332.01526"
       y1="68.047295"
       x2="370.06015"
       y2="89.611122"
       gradientUnits="userSpaceOnUse" />
    <radialGradient
       inkscape:collect="always"
       xlink:href="#linearGradient3227"
       id="radialGradient3237"
       cx="360.74432"
       cy="118.88139"
       fx="360.74432"
       fy="118.88139"
       r="34.471455"
       gradientTransform="matrix(1.5351589,0.1013758,-0.185554,1.7362447,-170.99661,-124.28227)"
       gradientUnits="userSpaceOnUse" />
    <linearGradient
       inkscape:collect="always"
       xlink:href="#linearGradient3287"
       id="linearGradient3293"
       x1="128.69344"
       y1="522.7392"
       x2="128.69344"
       y2="590.62146"
       gradientUnits="userSpaceOnUse"
       gradientTransform="matrix(1.685353,0,0,1.685353,-737.37999,-212.02135)" />
    <linearGradient
       inkscape:collect="always"
       xlink:href="#linearGradient3181"
       id="linearGradient3325"
       gradientUnits="userSpaceOnUse"
       x1="128.69344"
       y1="116.76829"
       x2="128.69344"
       y2="215.76323"
       gradientTransform="translate(-651.79738,228.53198)" />
    <linearGradient
       inkscape:collect="always"
       xlink:href="#linearGradient3227"
       id="linearGradient3369"
       gradientUnits="userSpaceOnUse"
       x1="332.01526"
       y1="68.047295"
       x2="370.06015"
       y2="89.611122" />
    <radialGradient
       inkscape:collect="always"
       xlink:href="#linearGradient3227"
       id="radialGradient3371"
       gradientUnits="userSpaceOnUse"
       gradientTransform="matrix(1.5351589,0.1013758,-0.185554,1.7362447,-170.99661,-124.28227)"
       cx="360.74432"
       cy="118.88139"
       fx="360.74432"
       fy="118.88139"
       r="34.471455" />
    <linearGradient
       inkscape:collect="always"
       xlink:href="#linearGradient3227"
       id="linearGradient3381"
       gradientUnits="userSpaceOnUse"
       x1="332.01526"
       y1="68.047295"
       x2="370.06015"
       y2="89.611122" />
    <radialGradient
       inkscape:collect="always"
       xlink:href="#linearGradient3227"
       id="radialGradient3383"
       gradientUnits="userSpaceOnUse"
       gradientTransform="matrix(1.5351589,0.1013758,-0.185554,1.7362447,-170.99661,-124.28227)"
       cx="360.74432"
       cy="118.88139"
       fx="360.74432"
       fy="118.88139"
       r="34.471455" />
    <linearGradient
       inkscape:collect="always"
       xlink:href="#linearGradient3181"
       id="linearGradient3385"
       gradientUnits="userSpaceOnUse"
       x1="128.69344"
       y1="116.76829"
       x2="128.69344"
       y2="215.76323"
       gradientTransform="translate(1,95)" />
    <linearGradient
       inkscape:collect="always"
       xlink:href="#linearGradient3181"
       id="linearGradient3397"
       gradientUnits="userSpaceOnUse"
       gradientTransform="translate(1,95)"
       x1="128.69344"
       y1="116.76829"
       x2="128.69344"
       y2="215.76323" />
    <linearGradient
       inkscape:collect="always"
       xlink:href="#linearGradient3181"
       id="linearGradient3421"
       gradientUnits="userSpaceOnUse"
       gradientTransform="translate(1,95)"
       x1="128.69344"
       y1="116.76829"
       x2="128.69344"
       y2="215.76323" />
  </defs>
  <sodipodi:namedview
     id="base"
     pagecolor="#ffffff"
     bordercolor="#666666"
     borderopacity="1.0"
     gridtolerance="10000"
     guidetolerance="10"
     objecttolerance="10"
     inkscape:pageopacity="0.0"
     inkscape:pageshadow="2"
     inkscape:zoom="1"
     inkscape:cx="172.83457"
     inkscape:cy="616.41268"
     inkscape:document-units="px"
     inkscape:current-layer="layer1"
     showgrid="false"
     showguides="true"
     inkscape:guide-bbox="true"
     inkscape:window-width="1278"
     inkscape:window-height="991"
     inkscape:window-x="0"
     inkscape:window-y="0">
    <sodipodi:guide
       orientation="1,0"
       position="128.69343,803.2733"
       id="guide3189" />
  </sodipodi:namedview>
  <metadata
     id="metadata7">
    <rdf:RDF>
      <cc:Work
         rdf:about="">
        <dc:format>image/svg+xml</dc:format>
        <dc:type
           rdf:resource="http://purl.org/dc/dcmitype/StillImage" />
      </cc:Work>
    </rdf:RDF>
  </metadata>
  <g
     inkscape:label="Layer 1"
     inkscape:groupmode="layer"
     id="layer1">
    <path
       transform="translate(-607.4763,172.64645)"
       d="M 410.12194,100.77323 A 34.471455,34.117901 0 1 1 341.17903,100.77323 A 34.471455,34.117901 0 1 1 410.12194,100.77323 z"
       sodipodi:ry="34.117901"
       sodipodi:rx="34.471455"
       sodipodi:cy="100.77323"
       sodipodi:cx="375.65048"
       id="path3215"
       style="opacity:1;fill:#889dbe;fill-opacity:1;fill-rule:nonzero;stroke:none;stroke-width:4;stroke-linecap:round;stroke-linejoin:miter;marker:none;marker-start:none;marker-mid:none;marker-end:none;stroke-miterlimit:4;stroke-dasharray:none;stroke-dashoffset:0;stroke-opacity:1;visibility:visible;display:inline;overflow:visible;enable-background:accumulate"
       sodipodi:type="arc" />
    <path
       style="font-size:80.93449402px;font-style:italic;font-variant:normal;font-weight:bold;font-stretch:normal;text-align:start;line-height:125%;writing-mode:lr-tb;text-anchor:start;fill:#ffffff;fill-opacity:1;stroke:none;stroke-width:1px;stroke-linecap:butt;stroke-linejoin:miter;stroke-opacity:1;font-family:Delicious SmallCaps;-inkscape-font-specification:'Delicious SmallCaps, Bold Italic'"
       d="M -211.77532,234.66789 C -225.77698,234.66789 -232.34571,246.0014 -234.36907,256.19914 L -238.68157,277.66789 L -240.83782,288.35539 C -242.37558,296.1251 -244.87361,299.51164 -249.24407,299.51164 C -253.61453,299.51164 -254.84432,296.12509 -253.30657,288.35539 L -247.15032,257.66789 L -259.21282,257.66789 L -265.36907,288.35539 C -267.39243,298.55313 -265.33947,309.88664 -251.33782,309.88664 C -237.33616,309.88664 -230.79868,298.55313 -228.77532,288.35539 L -226.61907,277.66789 L -222.30657,256.19914 C -220.76881,248.42944 -218.27078,245.04289 -213.90032,245.04289 C -209.52986,245.04289 -208.30007,248.42944 -209.83782,256.19914 L -215.99407,286.88664 L -203.93157,286.88664 L -197.77532,256.19914 C -195.75196,246.0014 -197.77367,234.66789 -211.77532,234.66789 z"
       id="text3239"
       sodipodi:nodetypes="ccccsccccscccsccccc" />
    <path
       sodipodi:type="arc"
       style="opacity:1;fill:none;fill-opacity:1;fill-rule:nonzero;stroke:#000080;stroke-width:4;stroke-linecap:round;stroke-linejoin:miter;marker:none;marker-start:none;marker-mid:none;marker-end:none;stroke-miterlimit:4;stroke-dasharray:none;stroke-dashoffset:0;stroke-opacity:1;visibility:visible;display:inline;overflow:visible;enable-background:accumulate"
       id="path3209"
       sodipodi:cx="375.65048"
       sodipodi:cy="100.77323"
       sodipodi:rx="34.471455"
       sodipodi:ry="34.117901"
       d="M 410.12194,100.77323 A 34.471455,34.117901 0 1 1 341.17903,100.77323 A 34.471455,34.117901 0 1 1 410.12194,100.77323 z"
       transform="translate(-607.4763,172.64645)" />
    <path
       style="fill:#000080;fill-opacity:1;fill-rule:evenodd;stroke:#000080;stroke-width:1.08228278px;stroke-linecap:butt;stroke-linejoin:miter;stroke-opacity:1"
       d="M -232.97001,298.51377 C -218.67289,298.2391 -206.23713,286.88071 -197.87626,274.10752 C -197.65081,272.53225 -197.53251,270.93158 -197.53251,269.29502 C -197.53251,268.2571 -197.59693,267.21567 -197.68876,266.20127 C -205.65515,283.24598 -221.20793,300.68017 -241.18876,294.17002 C -245.36954,292.80783 -251.56211,288.364 -249.81376,283.10752 C -249.75429,282.92877 -249.63888,282.71042 -249.53251,282.51377 C -250.68929,282.46804 -251.65615,283.82013 -251.97001,284.76377 C -253.91502,290.6115 -246.99606,295.59211 -242.34501,297.10752 C -239.15453,298.14705 -236.0131,298.57223 -232.97001,298.51377 z M -228.31376,285.32627 C -216.68118,285.31091 -205.57746,276.40862 -197.72001,265.98252 C -197.86273,264.51295 -198.08222,263.0793 -198.40751,261.67002 C -207.81049,269.13913 -222.41813,274.51865 -232.75126,264.38877 C -235.02887,262.15599 -237.78531,257.32233 -235.37626,254.60752 C -235.29431,254.5152 -235.17953,254.41431 -235.06376,254.32627 C -235.77673,253.91588 -236.72506,254.4639 -237.15751,254.95127 C -239.83755,257.97143 -236.75381,263.37357 -234.22001,265.85752 C -232.48193,267.56144 -230.64035,268.8586 -228.72001,269.82627 C -220.24237,274.09826 -210.31836,271.69859 -202.15751,267.04502 C -212.27259,278.6026 -227.7174,288.16702 -240.18876,278.45127 C -243.07099,276.20588 -246.79729,270.75604 -244.31376,266.57627 C -244.22929,266.43414 -244.09409,266.28486 -243.97001,266.13877 C -244.84014,265.80845 -245.86791,266.76342 -246.31376,267.51377 C -249.07667,272.16366 -244.92643,278.26582 -241.72001,280.76377 C -239.52048,282.47729 -237.23577,283.64564 -234.90751,284.35752 C -232.70509,285.03092 -230.49833,285.32916 -228.31376,285.32627 z"
       id="path3199"
       sodipodi:nodetypes="ccscsscssccccsscssscsscsssc" />
    <flowRoot
       xml:space="preserve"
       id="flowRoot2383"
       style="font-size:10px;font-style:normal;font-variant:normal;font-weight:normal;font-stretch:normal;fill:#000000;fill-opacity:1;stroke:none;stroke-width:1px;stroke-linecap:butt;stroke-linejoin:miter;stroke-opacity:1;font-family:Delicious;-inkscape-font-specification:Delicious"><flowRegion
         id="flowRegion2385"><rect
           id="rect2387"
           width="11.428572"
           height="20"
           x="308.57144"
           y="463.79074" /></flowRegion><flowPara
         id="flowPara2389">Universal Air Inc</flowPara></flowRoot>    <text
       xml:space="preserve"
       style="font-size:2.63668323px;font-style:normal;font-variant:normal;font-weight:normal;font-stretch:normal;fill:#000080;fill-opacity:1;stroke:none;stroke-width:1px;stroke-linecap:butt;stroke-linejoin:miter;stroke-opacity:1;font-family:Delicious;-inkscape-font-specification:Delicious"
       x="160.33592"
       y="325.12448"
       id="text2391"><tspan
         sodipodi:role="line"
         id="tspan2393"
         x="160.33592"
         y="325.12448"
         style="font-size:26.36683273px;fill:#000080">efficient products, people and service</tspan></text>
    <g
       id="g3387"
       transform="matrix(0.93123,0,0,0.93123,8.1687424,6.815091)">
      <text
         sodipodi:linespacing="125%"
         xml:space="preserve"
         style="font-size:80.93449402px;font-style:italic;font-variant:normal;font-weight:bold;font-stretch:normal;text-align:start;line-height:125%;writing-mode:lr-tb;text-anchor:start;fill:#000000;fill-opacity:1;stroke:none;stroke-width:1px;stroke-linecap:butt;stroke-linejoin:miter;stroke-opacity:1;font-family:Delicious SmallCaps;-inkscape-font-specification:'Delicious SmallCaps, Bold Italic'"
         x="152.99188"
         y="316.86755"
         id="text2395"><tspan
           sodipodi:role="line"
           id="tspan2397"
           x="152.99188"
           y="316.86755"
           style="font-size:80.93449402px;font-style:italic;font-variant:normal;font-weight:bold;font-stretch:normal;text-align:start;line-height:125%;writing-mode:lr-tb;text-anchor:start;font-family:Delicious SmallCaps;-inkscape-font-specification:'Delicious SmallCaps, Bold Italic'"><tspan
             id="tspan2399"
             style="font-size:80.93449402px;font-style:italic;font-variant:normal;font-weight:bold;font-stretch:normal;text-align:start;line-height:125%;writing-mode:lr-tb;text-anchor:start;fill:#008000;font-family:Delicious Heavy;-inkscape-font-specification:'Delicious Heavy, Bold Italic'">UNIVERSAL</tspan><tspan
             id="tspan2401"
             style="font-size:80.93449402px;font-style:italic;font-variant:normal;font-weight:bold;font-stretch:normal;text-align:start;line-height:125%;writing-mode:lr-tb;text-anchor:start;fill:#000080;font-family:Delicious SmallCaps;-inkscape-font-specification:'Delicious SmallCaps, Bold Italic'">AIR</tspan></tspan></text>
      <text
         id="text3173"
         y="316.86755"
         x="152.99188"
         style="font-size:80.93449402px;font-style:italic;font-variant:normal;font-weight:bold;font-stretch:normal;text-align:start;line-height:125%;writing-mode:lr-tb;text-anchor:start;fill:url(#linearGradient3397);fill-opacity:1;stroke:none;stroke-width:1px;stroke-linecap:butt;stroke-linejoin:miter;stroke-opacity:1;font-family:Delicious SmallCaps;-inkscape-font-specification:'Delicious SmallCaps, Bold Italic'"
         xml:space="preserve"
         sodipodi:linespacing="125%"><tspan
           style="font-size:80.93449402px;font-style:italic;font-variant:normal;font-weight:bold;font-stretch:normal;text-align:start;line-height:125%;writing-mode:lr-tb;text-anchor:start;fill:url(#linearGradient3397);fill-opacity:1;font-family:Delicious SmallCaps;-inkscape-font-specification:'Delicious SmallCaps, Bold Italic'"
           y="316.86755"
           x="152.99188"
           id="tspan3175"
           sodipodi:role="line"><tspan
             style="font-size:80.93449402px;font-style:italic;font-variant:normal;font-weight:bold;font-stretch:normal;text-align:start;line-height:125%;writing-mode:lr-tb;text-anchor:start;fill:url(#linearGradient3397);fill-opacity:1;font-family:Delicious Heavy;-inkscape-font-specification:'Delicious Heavy, Bold Italic'"
             id="tspan3177">UNIVERSAL</tspan><tspan
             style="font-size:80.93449402px;font-style:italic;font-variant:normal;font-weight:bold;font-stretch:normal;text-align:start;line-height:125%;writing-mode:lr-tb;text-anchor:start;fill:url(#linearGradient3397);fill-opacity:1;font-family:Delicious SmallCaps;-inkscape-font-specification:'Delicious SmallCaps, Bold Italic'"
             id="tspan3179">AIR</tspan></tspan></text>
    </g>
    <path
       sodipodi:type="arc"
       style="opacity:1;fill:url(#linearGradient3233);fill-opacity:1;fill-rule:nonzero;stroke:none;stroke-width:4;stroke-linecap:round;stroke-linejoin:miter;marker:none;marker-start:none;marker-mid:none;marker-end:none;stroke-miterlimit:4;stroke-dasharray:none;stroke-dashoffset:0;stroke-opacity:1;visibility:visible;display:inline;overflow:visible;enable-background:accumulate"
       id="path3217"
       sodipodi:cx="375.65048"
       sodipodi:cy="100.77323"
       sodipodi:rx="34.471455"
       sodipodi:ry="34.117901"
       d="M 410.12194,100.77323 A 34.471455,34.117901 0 1 1 341.17903,100.77323 A 34.471455,34.117901 0 1 1 410.12194,100.77323 z"
       transform="matrix(1.047629,0,0,1.047629,-625.7263,167.61817)" />
    <path
       transform="matrix(0.2772999,0.3061236,-0.3894362,0.3527681,-308.87854,112.24489)"
       d="M 410.12194,100.77323 A 34.471455,34.117901 0 1 1 341.17903,100.77323 A 34.471455,34.117901 0 1 1 410.12194,100.77323 z"
       sodipodi:ry="34.117901"
       sodipodi:rx="34.471455"
       sodipodi:cy="100.77323"
       sodipodi:cx="375.65048"
       id="path3235"
       style="opacity:0.6;fill:url(#radialGradient3237);fill-opacity:1;fill-rule:nonzero;stroke:none;stroke-width:4;stroke-linecap:round;stroke-linejoin:miter;marker:none;marker-start:none;marker-mid:none;marker-end:none;stroke-miterlimit:4;stroke-dasharray:none;stroke-dashoffset:0;stroke-opacity:1;visibility:visible;display:inline;overflow:visible;enable-background:accumulate"
       sodipodi:type="arc" />
    <path
       style="font-size:80.93449402px;font-style:italic;font-variant:normal;font-weight:bold;font-stretch:normal;text-align:start;line-height:125%;writing-mode:lr-tb;text-anchor:start;fill:#000080;fill-opacity:1;stroke:none;stroke-width:1px;stroke-linecap:butt;stroke-linejoin:miter;stroke-opacity:1;font-family:Delicious SmallCaps;-inkscape-font-specification:'Delicious SmallCaps, Bold Italic'"
       d="M -305.98218,684.24749 C -329.57992,684.24749 -340.65055,703.34845 -344.06063,720.53524 L -351.32872,756.71766 L -354.96276,774.72987 C -357.55443,787.82458 -361.76449,793.53209 -369.13025,793.53209 C -376.49602,793.53209 -378.56865,787.82457 -375.977,774.72987 L -365.60155,723.0106 L -385.93111,723.0106 L -396.30657,774.72987 C -399.71664,791.91666 -396.25668,811.01763 -372.65897,811.01763 C -349.06123,811.01763 -338.04326,791.91666 -334.63318,774.72987 L -330.99914,756.71766 L -323.73105,720.53524 C -321.13939,707.44055 -316.92932,701.73303 -309.56356,701.73303 C -302.19779,701.73303 -300.12516,707.44055 -302.71681,720.53524 L -313.09227,772.25451 L -292.76269,772.25451 L -282.38724,720.53524 C -278.97716,703.34845 -282.38446,684.24749 -305.98218,684.24749 z"
       id="path3283"
       sodipodi:nodetypes="ccccsccccscccsccccc" />
    <path
       sodipodi:nodetypes="ccccsccccscccsccccc"
       id="path3285"
       d="M -305.98218,684.24749 C -329.57992,684.24749 -340.65055,703.34845 -344.06063,720.53524 L -351.32872,756.71766 L -354.96276,774.72987 C -357.55443,787.82458 -361.76449,793.53209 -369.13025,793.53209 C -376.49602,793.53209 -378.56865,787.82457 -375.977,774.72987 L -365.60155,723.0106 L -385.93111,723.0106 L -396.30657,774.72987 C -399.71664,791.91666 -396.25668,811.01763 -372.65897,811.01763 C -349.06123,811.01763 -338.04326,791.91666 -334.63318,774.72987 L -330.99914,756.71766 L -323.73105,720.53524 C -321.13939,707.44055 -316.92932,701.73303 -309.56356,701.73303 C -302.19779,701.73303 -300.12516,707.44055 -302.71681,720.53524 L -313.09227,772.25451 L -292.76269,772.25451 L -282.38724,720.53524 C -278.97716,703.34845 -282.38446,684.24749 -305.98218,684.24749 z"
       style="font-size:80.93449402px;font-style:italic;font-variant:normal;font-weight:bold;font-stretch:normal;text-align:start;line-height:125%;writing-mode:lr-tb;text-anchor:start;opacity:0.6;fill:url(#linearGradient3293);fill-opacity:1;stroke:none;stroke-width:1px;stroke-linecap:butt;stroke-linejoin:miter;stroke-opacity:1;font-family:Delicious SmallCaps;-inkscape-font-specification:'Delicious SmallCaps, Bold Italic'" />
    <text
       xml:space="preserve"
       style="font-size:2.87322235px;font-style:normal;font-variant:normal;font-weight:normal;font-stretch:normal;fill:#000080;fill-opacity:1;stroke:none;stroke-width:1px;stroke-linecap:butt;stroke-linejoin:miter;stroke-opacity:1;font-family:Delicious;-inkscape-font-specification:Delicious"
       x="-476.00967"
       y="641.81604"
       id="text3305"><tspan
         sodipodi:role="line"
         id="tspan3307"
         x="-476.00967"
         y="641.81604"
         style="font-size:28.73222351px;fill:#000080">efficient products, people and service</tspan></text>
    <text
       id="text3309"
       y="809.00806"
       x="-337.45297"
       style="font-size:55.88811111px;font-style:italic;font-variant:normal;font-weight:bold;font-stretch:normal;text-align:start;line-height:125%;writing-mode:lr-tb;text-anchor:start;fill:#000000;fill-opacity:1;stroke:none;stroke-width:1px;stroke-linecap:butt;stroke-linejoin:miter;stroke-opacity:1;font-family:Delicious SmallCaps;-inkscape-font-specification:'Delicious SmallCaps, Bold Italic'"
       xml:space="preserve"
       sodipodi:linespacing="125%"><tspan
         style="font-size:55.88811111px;font-style:italic;font-variant:normal;font-weight:bold;font-stretch:normal;text-align:start;line-height:125%;writing-mode:lr-tb;text-anchor:start;font-family:Delicious SmallCaps;-inkscape-font-specification:'Delicious SmallCaps, Bold Italic'"
         y="809.00806"
         x="-337.45297"
         id="tspan3311"
         sodipodi:role="line"><tspan
           style="font-size:55.88811111px;font-style:italic;font-variant:normal;font-weight:bold;font-stretch:normal;text-align:start;line-height:125%;writing-mode:lr-tb;text-anchor:start;fill:#008000;font-family:Delicious Heavy;-inkscape-font-specification:'Delicious Heavy, Bold Italic'"
           id="tspan3313">NIVERSAL</tspan><tspan
           style="font-size:55.88811111px;font-style:italic;font-variant:normal;font-weight:bold;font-stretch:normal;text-align:start;line-height:125%;writing-mode:lr-tb;text-anchor:start;fill:#000080;font-family:Delicious SmallCaps;-inkscape-font-specification:'Delicious SmallCaps, Bold Italic'"
           id="tspan3315" /></tspan></text>
    <text
       sodipodi:linespacing="125%"
       xml:space="preserve"
       style="font-size:55.88811111px;font-style:italic;font-variant:normal;font-weight:bold;font-stretch:normal;text-align:start;line-height:125%;writing-mode:lr-tb;text-anchor:start;fill:#000000;fill-opacity:1;stroke:none;stroke-width:1px;stroke-linecap:butt;stroke-linejoin:miter;stroke-opacity:1;font-family:Delicious SmallCaps;-inkscape-font-specification:'Delicious SmallCaps, Bold Italic'"
       x="-287.45297"
       y="768.00806"
       id="text3327"><tspan
         sodipodi:role="line"
         id="tspan3329"
         x="-287.45297"
         y="768.00806"
         style="font-size:55.88811111px;font-style:italic;font-variant:normal;font-weight:bold;font-stretch:normal;text-align:start;line-height:125%;writing-mode:lr-tb;text-anchor:start;font-family:Delicious SmallCaps;-inkscape-font-specification:'Delicious SmallCaps, Bold Italic'"><tspan
           id="tspan3333"
           style="font-size:55.88811111px;font-style:italic;font-variant:normal;font-weight:bold;font-stretch:normal;text-align:start;line-height:125%;writing-mode:lr-tb;text-anchor:start;fill:#000080;font-family:Delicious SmallCaps;-inkscape-font-specification:'Delicious SmallCaps, Bold Italic'">IR</tspan></tspan></text>
    <g
       id="g3373"
       transform="matrix(1.3566276,0,0,1.3566276,99.997796,15.768479)">
      <path
         sodipodi:type="arc"
         style="opacity:1;fill:#008000;fill-opacity:1;fill-rule:nonzero;stroke:none;stroke-width:4;stroke-linecap:round;stroke-linejoin:miter;marker:none;marker-start:none;marker-mid:none;marker-end:none;stroke-miterlimit:4;stroke-dasharray:none;stroke-dashoffset:0;stroke-opacity:1;visibility:visible;display:inline;overflow:visible;enable-background:accumulate"
         id="path3337"
         sodipodi:cx="375.65048"
         sodipodi:cy="100.77323"
         sodipodi:rx="34.471455"
         sodipodi:ry="34.117901"
         d="M 410.12194,100.77323 A 34.471455,34.117901 0 1 1 341.17903,100.77323 A 34.471455,34.117901 0 1 1 410.12194,100.77323 z"
         transform="translate(-299.56634,287.73137)" />
      <path
         sodipodi:nodetypes="ccccsccccscccsccccc"
         id="path3339"
         d="M 96.13464,349.75281 C 82.13298,349.75281 75.56425,361.08632 73.54089,371.28406 L 69.22839,392.75281 L 67.07214,403.44031 C 65.53438,411.21002 63.03635,414.59656 58.66589,414.59656 C 54.29543,414.59656 53.06564,411.21001 54.60339,403.44031 L 60.75964,372.75281 L 48.69714,372.75281 L 42.54089,403.44031 C 40.51753,413.63805 42.57049,424.97156 56.57214,424.97156 C 70.5738,424.97156 77.11128,413.63805 79.13464,403.44031 L 81.29089,392.75281 L 85.60339,371.28406 C 87.14115,363.51436 89.63918,360.12781 94.00964,360.12781 C 98.3801,360.12781 99.60989,363.51436 98.07214,371.28406 L 91.91589,401.97156 L 103.97839,401.97156 L 110.13464,371.28406 C 112.158,361.08632 110.13629,349.75281 96.13464,349.75281 z"
         style="font-size:80.93449402px;font-style:italic;font-variant:normal;font-weight:bold;font-stretch:normal;text-align:start;line-height:125%;writing-mode:lr-tb;text-anchor:start;fill:#ffffff;fill-opacity:1;stroke:none;stroke-width:1px;stroke-linecap:butt;stroke-linejoin:miter;stroke-opacity:1;font-family:Delicious SmallCaps;-inkscape-font-specification:'Delicious SmallCaps, Bold Italic'" />
      <path
         sodipodi:nodetypes="csscssscc"
         id="path3341"
         d="M 109.08574,383.65704 C 99.028509,391.11114 83.404479,396.47986 72.352374,386.37033 C 69.916289,384.14203 66.968057,379.31808 69.544728,376.60872 C 69.63238,376.51659 69.755146,376.4159 69.878971,376.32804 C 69.116393,375.91847 68.102079,376.46539 67.639539,376.95178 C 64.773023,379.96588 68.071328,385.35717 70.781429,387.83613 C 72.640444,389.53662 74.61016,390.83118 76.664117,391.7969 C 85.731628,396.06031 96.346146,393.66546 105.07482,389.02124 C 109.31588,386.73082 110.04405,388.11861 109.08574,383.65704 z"
         style="fill:#ffffff;fill-opacity:1;fill-rule:evenodd;stroke:#ffffff;stroke-width:1.11817741px;stroke-linecap:butt;stroke-linejoin:miter;stroke-opacity:1" />
      <path
         transform="translate(-299.56634,287.73137)"
         d="M 410.12194,100.77323 A 34.471455,34.117901 0 1 1 341.17903,100.77323 A 34.471455,34.117901 0 1 1 410.12194,100.77323 z"
         sodipodi:ry="34.117901"
         sodipodi:rx="34.471455"
         sodipodi:cy="100.77323"
         sodipodi:cx="375.65048"
         id="path3343"
         style="opacity:1;fill:none;fill-opacity:1;fill-rule:nonzero;stroke:#13640c;stroke-width:4;stroke-linecap:round;stroke-linejoin:miter;marker:none;marker-start:none;marker-mid:none;marker-end:none;stroke-miterlimit:4;stroke-dasharray:none;stroke-dashoffset:0;stroke-opacity:1;visibility:visible;display:inline;overflow:visible;enable-background:accumulate"
         sodipodi:type="arc" />
      <path
         transform="matrix(1.047629,0,0,1.047629,-317.81634,282.70309)"
         d="M 410.12194,100.77323 A 34.471455,34.117901 0 1 1 341.17903,100.77323 A 34.471455,34.117901 0 1 1 410.12194,100.77323 z"
         sodipodi:ry="34.117901"
         sodipodi:rx="34.471455"
         sodipodi:cy="100.77323"
         sodipodi:cx="375.65048"
         id="path3345"
         style="opacity:1;fill:url(#linearGradient3381);fill-opacity:1;fill-rule:nonzero;stroke:none;stroke-width:4;stroke-linecap:round;stroke-linejoin:miter;marker:none;marker-start:none;marker-mid:none;marker-end:none;stroke-miterlimit:4;stroke-dasharray:none;stroke-dashoffset:0;stroke-opacity:1;visibility:visible;display:inline;overflow:visible;enable-background:accumulate"
         sodipodi:type="arc" />
      <path
         sodipodi:type="arc"
         style="opacity:0.6;fill:url(#radialGradient3383);fill-opacity:1;fill-rule:nonzero;stroke:none;stroke-width:4;stroke-linecap:round;stroke-linejoin:miter;marker:none;marker-start:none;marker-mid:none;marker-end:none;stroke-miterlimit:4;stroke-dasharray:none;stroke-dashoffset:0;stroke-opacity:1;visibility:visible;display:inline;overflow:visible;enable-background:accumulate"
         id="path3347"
         sodipodi:cx="375.65048"
         sodipodi:cy="100.77323"
         sodipodi:rx="34.471455"
         sodipodi:ry="34.117901"
         d="M 410.12194,100.77323 A 34.471455,34.117901 0 1 1 341.17903,100.77323 A 34.471455,34.117901 0 1 1 410.12194,100.77323 z"
         transform="matrix(0.2772999,0.3061236,-0.3894362,0.3527681,-0.9685801,227.32981)" />
    </g>
    <path
       transform="matrix(1.3168384,0,0,1.3168384,-392.38082,150.24841)"
       d="M 410.12194,100.77323 A 34.471455,34.117901 0 1 1 341.17903,100.77323 A 34.471455,34.117901 0 1 1 410.12194,100.77323 z"
       sodipodi:ry="34.117901"
       sodipodi:rx="34.471455"
       sodipodi:cy="100.77323"
       sodipodi:cx="375.65048"
       id="path3357"
       style="opacity:1;fill:#4d4dba;fill-opacity:1;fill-rule:nonzero;stroke:none;stroke-width:4;stroke-linecap:round;stroke-linejoin:miter;marker:none;marker-start:none;marker-mid:none;marker-end:none;stroke-miterlimit:4;stroke-dasharray:none;stroke-dashoffset:0;stroke-opacity:1;visibility:visible;display:inline;overflow:visible;enable-background:accumulate"
       sodipodi:type="arc" />
    <path
       style="font-size:80.93449402px;font-style:italic;font-variant:normal;font-weight:bold;font-stretch:normal;text-align:start;line-height:125%;writing-mode:lr-tb;text-anchor:start;fill:#ffffff;fill-opacity:1;stroke:none;stroke-width:1px;stroke-linecap:butt;stroke-linejoin:miter;stroke-opacity:1;font-family:Delicious SmallCaps;-inkscape-font-specification:'Delicious SmallCaps, Bold Italic'"
       d="M 128.69343,231.92062 C 110.25551,231.92062 101.60555,246.84502 98.94111,260.2738 L 93.262246,288.54467 L 90.422813,302.61838 C 88.397832,312.84984 85.10833,317.30936 79.35314,317.30936 C 73.597951,317.30936 71.978516,312.84982 74.003484,302.61838 L 82.110271,262.2079 L 66.225907,262.2079 L 58.119121,302.61838 C 55.454683,316.04716 58.158099,330.97156 76.59601,330.97156 C 95.03393,330.97156 103.64274,316.04716 106.30718,302.61838 L 109.14661,288.54467 L 114.82548,260.2738 C 116.85046,250.04236 120.13996,245.58282 125.89515,245.58282 C 131.65034,245.58282 133.26977,250.04236 131.2448,260.2738 L 123.13802,300.68428 L 139.02238,300.68428 L 147.12917,260.2738 C 149.79361,246.84502 147.13134,231.92062 128.69343,231.92062 z"
       id="path3359"
       sodipodi:nodetypes="ccccsccccscccsccccc" />
    <path
       style="fill:#ffffff;fill-opacity:1;fill-rule:evenodd;stroke:#ffffff;stroke-width:1.47245896px;stroke-linecap:butt;stroke-linejoin:miter;stroke-opacity:1"
       d="M 147.18047,267.03408 C 133.93673,276.84992 113.3624,283.91966 98.80857,270.60704 C 95.60064,267.67273 91.718293,261.32037 95.11135,257.75258 C 95.22677,257.63126 95.38844,257.49867 95.55149,257.38297 C 94.547309,256.84363 93.211614,257.56384 92.602523,258.20433 C 88.827793,262.17342 93.171121,269.27287 96.73988,272.53726 C 99.18791,274.77653 101.7817,276.48126 104.48644,277.75296 C 116.42688,283.36718 130.40449,280.21355 141.89874,274.09786 C 147.48353,271.08175 148.44241,272.90924 147.18047,267.03408 z"
       id="path3361"
       sodipodi:nodetypes="csscssscc" />
    <path
       sodipodi:type="arc"
       style="opacity:1;fill:none;fill-opacity:1;fill-rule:nonzero;stroke:#000080;stroke-width:4;stroke-linecap:round;stroke-linejoin:miter;marker:none;marker-start:none;marker-mid:none;marker-end:none;stroke-miterlimit:4;stroke-dasharray:none;stroke-dashoffset:0;stroke-opacity:1;visibility:visible;display:inline;overflow:visible;enable-background:accumulate"
       id="path3363"
       sodipodi:cx="375.65048"
       sodipodi:cy="100.77323"
       sodipodi:rx="34.471455"
       sodipodi:ry="34.117901"
       d="M 410.12194,100.77323 A 34.471455,34.117901 0 1 1 341.17903,100.77323 A 34.471455,34.117901 0 1 1 410.12194,100.77323 z"
       transform="matrix(1.3168384,0,0,1.3168384,-392.38082,150.24841)" />
    <path
       sodipodi:type="arc"
       style="opacity:1;fill:url(#linearGradient3369);fill-opacity:1;fill-rule:nonzero;stroke:none;stroke-width:4;stroke-linecap:round;stroke-linejoin:miter;marker:none;marker-start:none;marker-mid:none;marker-end:none;stroke-miterlimit:4;stroke-dasharray:none;stroke-dashoffset:0;stroke-opacity:1;visibility:visible;display:inline;overflow:visible;enable-background:accumulate"
       id="path3365"
       sodipodi:cx="375.65048"
       sodipodi:cy="100.77323"
       sodipodi:rx="34.471455"
       sodipodi:ry="34.117901"
       d="M 410.12194,100.77323 A 34.471455,34.117901 0 1 1 341.17903,100.77323 A 34.471455,34.117901 0 1 1 410.12194,100.77323 z"
       transform="matrix(1.3795581,0,0,1.3795581,-416.41312,143.62697)" />
    <path
       transform="matrix(0.3651592,0.4031153,-0.5128246,0.4645386,0.8241793,70.70931)"
       d="M 410.12194,100.77323 A 34.471455,34.117901 0 1 1 341.17903,100.77323 A 34.471455,34.117901 0 1 1 410.12194,100.77323 z"
       sodipodi:ry="34.117901"
       sodipodi:rx="34.471455"
       sodipodi:cy="100.77323"
       sodipodi:cx="375.65048"
       id="path3367"
       style="opacity:0.6;fill:url(#radialGradient3371);fill-opacity:1;fill-rule:nonzero;stroke:none;stroke-width:4;stroke-linecap:round;stroke-linejoin:miter;marker:none;marker-start:none;marker-mid:none;marker-end:none;stroke-miterlimit:4;stroke-dasharray:none;stroke-dashoffset:0;stroke-opacity:1;visibility:visible;display:inline;overflow:visible;enable-background:accumulate"
       sodipodi:type="arc" />
    <text
       xml:space="preserve"
       style="font-size:2.63668323px;font-style:normal;font-variant:normal;font-weight:normal;font-stretch:normal;fill:#000080;fill-opacity:1;stroke:none;stroke-width:1px;stroke-linecap:butt;stroke-linejoin:miter;stroke-opacity:1;font-family:Delicious;-inkscape-font-specification:Delicious"
       x="260.27405"
       y="582.34808"
       id="text3399"><tspan
         sodipodi:role="line"
         id="tspan3401"
         x="260.27405"
         y="582.34808"
         style="font-size:26.36683273px;fill:#000080">efficient products, people and service</tspan></text>
    <g
       id="g3403"
       transform="matrix(0.93123,0,0,0.93123,108.10689,264.0387)">
      <text
         sodipodi:linespacing="125%"
         xml:space="preserve"
         style="font-size:80.93449402px;font-style:italic;font-variant:normal;font-weight:bold;font-stretch:normal;text-align:start;line-height:125%;writing-mode:lr-tb;text-anchor:start;fill:#000000;fill-opacity:1;stroke:none;stroke-width:1px;stroke-linecap:butt;stroke-linejoin:miter;stroke-opacity:1;font-family:Delicious SmallCaps;-inkscape-font-specification:'Delicious SmallCaps, Bold Italic'"
         x="152.99188"
         y="316.86755"
         id="text3405"><tspan
           sodipodi:role="line"
           id="tspan3407"
           x="152.99188"
           y="316.86755"
           style="font-size:80.93449402px;font-style:italic;font-variant:normal;font-weight:bold;font-stretch:normal;text-align:start;line-height:125%;writing-mode:lr-tb;text-anchor:start;font-family:Delicious SmallCaps;-inkscape-font-specification:'Delicious SmallCaps, Bold Italic'"><tspan
             id="tspan3409"
             style="font-size:80.93449402px;font-style:italic;font-variant:normal;font-weight:bold;font-stretch:normal;text-align:start;line-height:125%;writing-mode:lr-tb;text-anchor:start;fill:#008000;font-family:Delicious Heavy;-inkscape-font-specification:'Delicious Heavy, Bold Italic'">UNIVERSAL</tspan><tspan
             id="tspan3411"
             style="font-size:80.93449402px;font-style:italic;font-variant:normal;font-weight:bold;font-stretch:normal;text-align:start;line-height:125%;writing-mode:lr-tb;text-anchor:start;fill:#000080;font-family:Delicious SmallCaps;-inkscape-font-specification:'Delicious SmallCaps, Bold Italic'">AIR</tspan></tspan></text>
      <text
         id="text3413"
         y="316.86755"
         x="152.99188"
         style="font-size:80.93449402px;font-style:italic;font-variant:normal;font-weight:bold;font-stretch:normal;text-align:start;line-height:125%;writing-mode:lr-tb;text-anchor:start;fill:url(#linearGradient3421);fill-opacity:1;stroke:none;stroke-width:1px;stroke-linecap:butt;stroke-linejoin:miter;stroke-opacity:1;font-family:Delicious SmallCaps;-inkscape-font-specification:'Delicious SmallCaps, Bold Italic'"
         xml:space="preserve"
         sodipodi:linespacing="125%"><tspan
           style="font-size:80.93449402px;font-style:italic;font-variant:normal;font-weight:bold;font-stretch:normal;text-align:start;line-height:125%;writing-mode:lr-tb;text-anchor:start;fill:url(#linearGradient3421);fill-opacity:1;font-family:Delicious SmallCaps;-inkscape-font-specification:'Delicious SmallCaps, Bold Italic'"
           y="316.86755"
           x="152.99188"
           id="tspan3415"
           sodipodi:role="line"><tspan
             style="font-size:80.93449402px;font-style:italic;font-variant:normal;font-weight:bold;font-stretch:normal;text-align:start;line-height:125%;writing-mode:lr-tb;text-anchor:start;fill:url(#linearGradient3421);fill-opacity:1;font-family:Delicious Heavy;-inkscape-font-specification:'Delicious Heavy, Bold Italic'"
             id="tspan3417">UNIVERSAL</tspan><tspan
             style="font-size:80.93449402px;font-style:italic;font-variant:normal;font-weight:bold;font-stretch:normal;text-align:start;line-height:125%;writing-mode:lr-tb;text-anchor:start;fill:url(#linearGradient3421);fill-opacity:1;font-family:Delicious SmallCaps;-inkscape-font-specification:'Delicious SmallCaps, Bold Italic'"
             id="tspan3419">AIR</tspan></tspan></text>
    </g>
  </g>
</svg>
